<mxfile host="app.diagrams.net" modified="2022-06-20T14:29:11.294Z" agent="5.0 (Macintosh; Intel Mac OS X 10_15_7) AppleWebKit/537.36 (KHTML, like Gecko) Chrome/102.0.0.0 Safari/537.36" etag="bfKkYVC8ArI2-3RGp90Y" version="20.0.1" type="github">
  <diagram id="L_UoT_DxCkrW-5KhUJgU" name="Page-1">
    <mxGraphModel dx="2037" dy="1099" grid="1" gridSize="10" guides="1" tooltips="1" connect="1" arrows="1" fold="1" page="1" pageScale="1" pageWidth="850" pageHeight="1100" math="0" shadow="0">
      <root>
        <mxCell id="0" />
        <mxCell id="1" parent="0" />
        <mxCell id="brhtzUgJUdRGQniVu7Yr-1" value="" style="rounded=0;whiteSpace=wrap;html=1;fillColor=#f5f5f5;fontColor=#333333;strokeColor=#666666;" vertex="1" parent="1">
          <mxGeometry x="700" y="80" width="140" height="900" as="geometry" />
        </mxCell>
        <mxCell id="pCvEN7_FgobJJsHZdbzq-35" style="edgeStyle=orthogonalEdgeStyle;rounded=0;orthogonalLoop=1;jettySize=auto;html=1;exitX=0.5;exitY=1;exitDx=0;exitDy=0;startArrow=none;startFill=0;endArrow=none;endFill=0;" parent="1" source="pCvEN7_FgobJJsHZdbzq-2" edge="1">
          <mxGeometry relative="1" as="geometry">
            <mxPoint x="305" y="480" as="targetPoint" />
          </mxGeometry>
        </mxCell>
        <mxCell id="pCvEN7_FgobJJsHZdbzq-2" value="Land NFT&lt;br&gt;Contract" style="shape=process;whiteSpace=wrap;html=1;backgroundOutline=1;" parent="1" vertex="1">
          <mxGeometry x="245" y="90" width="120" height="60" as="geometry" />
        </mxCell>
        <mxCell id="pCvEN7_FgobJJsHZdbzq-36" style="edgeStyle=orthogonalEdgeStyle;rounded=0;orthogonalLoop=1;jettySize=auto;html=1;exitX=0.5;exitY=1;exitDx=0;exitDy=0;startArrow=none;startFill=0;endArrow=none;endFill=0;" parent="1" source="pCvEN7_FgobJJsHZdbzq-3" edge="1">
          <mxGeometry relative="1" as="geometry">
            <mxPoint x="775" y="950" as="targetPoint" />
          </mxGeometry>
        </mxCell>
        <mxCell id="pCvEN7_FgobJJsHZdbzq-3" value="Server" style="shape=process;whiteSpace=wrap;html=1;backgroundOutline=1;" parent="1" vertex="1">
          <mxGeometry x="715" y="90" width="120" height="60" as="geometry" />
        </mxCell>
        <mxCell id="pCvEN7_FgobJJsHZdbzq-10" style="edgeStyle=orthogonalEdgeStyle;rounded=0;orthogonalLoop=1;jettySize=auto;html=1;exitX=0.5;exitY=1;exitDx=0;exitDy=0;entryX=0.5;entryY=0;entryDx=0;entryDy=0;entryPerimeter=0;" parent="1" source="pCvEN7_FgobJJsHZdbzq-4" target="pCvEN7_FgobJJsHZdbzq-8" edge="1">
          <mxGeometry relative="1" as="geometry" />
        </mxCell>
        <mxCell id="pCvEN7_FgobJJsHZdbzq-37" style="edgeStyle=orthogonalEdgeStyle;rounded=0;orthogonalLoop=1;jettySize=auto;html=1;exitX=0.5;exitY=1;exitDx=0;exitDy=0;startArrow=none;startFill=0;endArrow=none;endFill=0;entryX=0.5;entryY=0;entryDx=0;entryDy=0;" parent="1" source="pCvEN7_FgobJJsHZdbzq-4" target="pCvEN7_FgobJJsHZdbzq-28" edge="1">
          <mxGeometry relative="1" as="geometry">
            <mxPoint x="545" y="950" as="targetPoint" />
          </mxGeometry>
        </mxCell>
        <mxCell id="pCvEN7_FgobJJsHZdbzq-4" value="User" style="shape=process;whiteSpace=wrap;html=1;backgroundOutline=1;" parent="1" vertex="1">
          <mxGeometry x="485" y="90" width="120" height="60" as="geometry" />
        </mxCell>
        <mxCell id="pCvEN7_FgobJJsHZdbzq-12" style="edgeStyle=orthogonalEdgeStyle;rounded=0;orthogonalLoop=1;jettySize=auto;html=1;exitX=0.5;exitY=1;exitDx=0;exitDy=0;exitPerimeter=0;" parent="1" source="pCvEN7_FgobJJsHZdbzq-8" target="pCvEN7_FgobJJsHZdbzq-11" edge="1">
          <mxGeometry relative="1" as="geometry" />
        </mxCell>
        <mxCell id="pCvEN7_FgobJJsHZdbzq-8" value="connect web3" style="strokeWidth=2;html=1;shape=mxgraph.flowchart.start_1;whiteSpace=wrap;" parent="1" vertex="1">
          <mxGeometry x="495" y="190" width="100" height="60" as="geometry" />
        </mxCell>
        <mxCell id="pCvEN7_FgobJJsHZdbzq-14" style="edgeStyle=orthogonalEdgeStyle;rounded=0;orthogonalLoop=1;jettySize=auto;html=1;exitX=0;exitY=0.5;exitDx=0;exitDy=0;startArrow=none;startFill=0;" parent="1" source="pCvEN7_FgobJJsHZdbzq-11" target="pCvEN7_FgobJJsHZdbzq-13" edge="1">
          <mxGeometry relative="1" as="geometry" />
        </mxCell>
        <mxCell id="pCvEN7_FgobJJsHZdbzq-17" style="edgeStyle=orthogonalEdgeStyle;rounded=0;orthogonalLoop=1;jettySize=auto;html=1;exitX=0.5;exitY=1;exitDx=0;exitDy=0;entryX=0.5;entryY=0;entryDx=0;entryDy=0;startArrow=none;startFill=0;" parent="1" source="pCvEN7_FgobJJsHZdbzq-11" target="pCvEN7_FgobJJsHZdbzq-16" edge="1">
          <mxGeometry relative="1" as="geometry" />
        </mxCell>
        <mxCell id="pCvEN7_FgobJJsHZdbzq-11" value="map initialize" style="rounded=0;whiteSpace=wrap;html=1;" parent="1" vertex="1">
          <mxGeometry x="485" y="290" width="120" height="60" as="geometry" />
        </mxCell>
        <mxCell id="pCvEN7_FgobJJsHZdbzq-13" value="get map" style="rounded=0;whiteSpace=wrap;html=1;" parent="1" vertex="1">
          <mxGeometry x="245" y="290" width="120" height="60" as="geometry" />
        </mxCell>
        <mxCell id="pCvEN7_FgobJJsHZdbzq-19" value="&lt;span style=&quot;font-size: 12px; background-color: rgb(248, 249, 250);&quot;&gt;lookup transfer log&lt;/span&gt;" style="edgeStyle=orthogonalEdgeStyle;rounded=0;orthogonalLoop=1;jettySize=auto;html=1;exitX=0;exitY=0.5;exitDx=0;exitDy=0;startArrow=none;startFill=0;" parent="1" source="pCvEN7_FgobJJsHZdbzq-16" edge="1">
          <mxGeometry relative="1" as="geometry">
            <mxPoint x="310" y="440" as="targetPoint" />
            <Array as="points">
              <mxPoint x="425" y="440" />
              <mxPoint x="425" y="440" />
            </Array>
          </mxGeometry>
        </mxCell>
        <mxCell id="pCvEN7_FgobJJsHZdbzq-16" value="event log subscribe&lt;br&gt;(transfer)" style="rounded=0;whiteSpace=wrap;html=1;" parent="1" vertex="1">
          <mxGeometry x="485" y="410" width="120" height="60" as="geometry" />
        </mxCell>
        <mxCell id="pCvEN7_FgobJJsHZdbzq-21" style="edgeStyle=orthogonalEdgeStyle;rounded=0;orthogonalLoop=1;jettySize=auto;html=1;exitX=0.5;exitY=1;exitDx=0;exitDy=0;entryX=0;entryY=0.5;entryDx=0;entryDy=0;startArrow=none;startFill=0;" parent="1" target="pCvEN7_FgobJJsHZdbzq-20" edge="1">
          <mxGeometry relative="1" as="geometry">
            <mxPoint x="305" y="470" as="sourcePoint" />
            <Array as="points">
              <mxPoint x="305" y="550" />
            </Array>
          </mxGeometry>
        </mxCell>
        <mxCell id="pCvEN7_FgobJJsHZdbzq-23" value="look up zero address transfer" style="edgeLabel;html=1;align=center;verticalAlign=middle;resizable=0;points=[];" parent="pCvEN7_FgobJJsHZdbzq-21" vertex="1" connectable="0">
          <mxGeometry x="0.102" relative="1" as="geometry">
            <mxPoint x="17" as="offset" />
          </mxGeometry>
        </mxCell>
        <mxCell id="pCvEN7_FgobJJsHZdbzq-20" value="update land purchased.&amp;nbsp;" style="rounded=0;whiteSpace=wrap;html=1;" parent="1" vertex="1">
          <mxGeometry x="485" y="520" width="120" height="60" as="geometry" />
        </mxCell>
        <mxCell id="pCvEN7_FgobJJsHZdbzq-27" style="edgeStyle=orthogonalEdgeStyle;rounded=0;orthogonalLoop=1;jettySize=auto;html=1;exitX=1;exitY=0.5;exitDx=0;exitDy=0;entryX=0;entryY=0.5;entryDx=0;entryDy=0;startArrow=none;startFill=0;" parent="1" source="pCvEN7_FgobJJsHZdbzq-24" target="pCvEN7_FgobJJsHZdbzq-26" edge="1">
          <mxGeometry relative="1" as="geometry" />
        </mxCell>
        <mxCell id="pCvEN7_FgobJJsHZdbzq-29" style="edgeStyle=orthogonalEdgeStyle;rounded=0;orthogonalLoop=1;jettySize=auto;html=1;exitX=0.5;exitY=1;exitDx=0;exitDy=0;startArrow=none;startFill=0;" parent="1" source="pCvEN7_FgobJJsHZdbzq-24" target="pCvEN7_FgobJJsHZdbzq-28" edge="1">
          <mxGeometry relative="1" as="geometry" />
        </mxCell>
        <mxCell id="pCvEN7_FgobJJsHZdbzq-24" value="click to land" style="rounded=0;whiteSpace=wrap;html=1;" parent="1" vertex="1">
          <mxGeometry x="485" y="640" width="120" height="60" as="geometry" />
        </mxCell>
        <mxCell id="pCvEN7_FgobJJsHZdbzq-26" value="get land detail and check land pending" style="rounded=0;whiteSpace=wrap;html=1;" parent="1" vertex="1">
          <mxGeometry x="715" y="640" width="120" height="60" as="geometry" />
        </mxCell>
        <mxCell id="pCvEN7_FgobJJsHZdbzq-32" style="edgeStyle=orthogonalEdgeStyle;rounded=0;orthogonalLoop=1;jettySize=auto;html=1;exitX=0;exitY=0.5;exitDx=0;exitDy=0;entryX=1;entryY=0.5;entryDx=0;entryDy=0;startArrow=none;startFill=0;" parent="1" source="pCvEN7_FgobJJsHZdbzq-28" target="pCvEN7_FgobJJsHZdbzq-31" edge="1">
          <mxGeometry relative="1" as="geometry" />
        </mxCell>
        <mxCell id="pCvEN7_FgobJJsHZdbzq-44" value="" style="edgeStyle=orthogonalEdgeStyle;rounded=0;orthogonalLoop=1;jettySize=auto;html=1;exitX=1;exitY=0.5;exitDx=0;exitDy=0;startArrow=none;startFill=0;endArrow=classic;endFill=1;fontSize=10;" parent="1" source="pCvEN7_FgobJJsHZdbzq-28" target="pCvEN7_FgobJJsHZdbzq-43" edge="1">
          <mxGeometry relative="1" as="geometry" />
        </mxCell>
        <mxCell id="pCvEN7_FgobJJsHZdbzq-28" value="click to buy" style="rounded=0;whiteSpace=wrap;html=1;" parent="1" vertex="1">
          <mxGeometry x="485" y="780" width="120" height="60" as="geometry" />
        </mxCell>
        <mxCell id="pCvEN7_FgobJJsHZdbzq-34" style="edgeStyle=orthogonalEdgeStyle;rounded=0;orthogonalLoop=1;jettySize=auto;html=1;exitX=0.5;exitY=1;exitDx=0;exitDy=0;startArrow=none;startFill=0;endArrow=none;endFill=0;" parent="1" source="pCvEN7_FgobJJsHZdbzq-33" edge="1">
          <mxGeometry relative="1" as="geometry">
            <mxPoint x="75" y="950" as="targetPoint" />
          </mxGeometry>
        </mxCell>
        <mxCell id="pCvEN7_FgobJJsHZdbzq-33" value="Land Sale&lt;br&gt;Contract" style="shape=process;whiteSpace=wrap;html=1;backgroundOutline=1;" parent="1" vertex="1">
          <mxGeometry x="15" y="90" width="120" height="60" as="geometry" />
        </mxCell>
        <mxCell id="pCvEN7_FgobJJsHZdbzq-31" value="buy land" style="rounded=0;whiteSpace=wrap;html=1;" parent="1" vertex="1">
          <mxGeometry x="15" y="780" width="120" height="60" as="geometry" />
        </mxCell>
        <mxCell id="pCvEN7_FgobJJsHZdbzq-43" value="&lt;span style=&quot;background-color: rgb(255, 255, 255);&quot;&gt;&lt;font style=&quot;font-size: 11px;&quot;&gt;put the land pending&lt;/font&gt;&lt;/span&gt;" style="rounded=0;whiteSpace=wrap;html=1;fillColor=#f8cecc;strokeColor=#b85450;" parent="1" vertex="1">
          <mxGeometry x="715" y="780" width="120" height="60" as="geometry" />
        </mxCell>
      </root>
    </mxGraphModel>
  </diagram>
</mxfile>
